<mxfile host="app.diagrams.net" agent="Mozilla/5.0 (Windows NT 10.0; Win64; x64) AppleWebKit/537.36 (KHTML, like Gecko) Chrome/127.0.0.0 Safari/537.36 OPR/113.0.0.0 (Edition std-1)" version="24.7.14">
  <diagram name="PÃ¡gina-1" id="qR9-zSWe67te7s6Lf68Y">
    <mxGraphModel dx="1876" dy="554" grid="1" gridSize="10" guides="1" tooltips="1" connect="1" arrows="1" fold="1" page="1" pageScale="1" pageWidth="827" pageHeight="1169" math="0" shadow="0">
      <root>
        <mxCell id="0" />
        <mxCell id="1" parent="0" />
        <mxCell id="GKwLWXQ0mNxcTZ8bq7SM-52" value="" style="rounded=0;whiteSpace=wrap;html=1;fillColor=#f8cecc;strokeColor=#b85450;" vertex="1" parent="1">
          <mxGeometry x="-80" y="640" width="840" height="640" as="geometry" />
        </mxCell>
        <mxCell id="GKwLWXQ0mNxcTZ8bq7SM-17" style="edgeStyle=orthogonalEdgeStyle;rounded=0;orthogonalLoop=1;jettySize=auto;html=1;entryX=1;entryY=0.5;entryDx=0;entryDy=0;endArrow=none;endFill=0;" edge="1" parent="1" source="GKwLWXQ0mNxcTZ8bq7SM-1" target="GKwLWXQ0mNxcTZ8bq7SM-16">
          <mxGeometry relative="1" as="geometry" />
        </mxCell>
        <mxCell id="GKwLWXQ0mNxcTZ8bq7SM-20" style="edgeStyle=orthogonalEdgeStyle;rounded=0;orthogonalLoop=1;jettySize=auto;html=1;entryX=0;entryY=0.5;entryDx=0;entryDy=0;endArrow=none;endFill=0;" edge="1" parent="1" source="GKwLWXQ0mNxcTZ8bq7SM-1" target="GKwLWXQ0mNxcTZ8bq7SM-19">
          <mxGeometry relative="1" as="geometry" />
        </mxCell>
        <mxCell id="GKwLWXQ0mNxcTZ8bq7SM-23" style="edgeStyle=orthogonalEdgeStyle;rounded=0;orthogonalLoop=1;jettySize=auto;html=1;entryX=1;entryY=0.5;entryDx=0;entryDy=0;endArrow=none;endFill=0;" edge="1" parent="1" source="GKwLWXQ0mNxcTZ8bq7SM-1" target="GKwLWXQ0mNxcTZ8bq7SM-22">
          <mxGeometry relative="1" as="geometry">
            <Array as="points">
              <mxPoint x="290" y="1030" />
            </Array>
          </mxGeometry>
        </mxCell>
        <mxCell id="GKwLWXQ0mNxcTZ8bq7SM-26" style="edgeStyle=orthogonalEdgeStyle;rounded=0;orthogonalLoop=1;jettySize=auto;html=1;entryX=0;entryY=0.5;entryDx=0;entryDy=0;endArrow=none;endFill=0;" edge="1" parent="1">
          <mxGeometry relative="1" as="geometry">
            <mxPoint x="350" y="920" as="sourcePoint" />
            <mxPoint x="440" y="1030" as="targetPoint" />
            <Array as="points">
              <mxPoint x="350" y="1030" />
            </Array>
          </mxGeometry>
        </mxCell>
        <mxCell id="GKwLWXQ0mNxcTZ8bq7SM-33" style="edgeStyle=orthogonalEdgeStyle;rounded=0;orthogonalLoop=1;jettySize=auto;html=1;entryX=0.5;entryY=0;entryDx=0;entryDy=0;endArrow=none;endFill=0;" edge="1" parent="1" source="GKwLWXQ0mNxcTZ8bq7SM-1" target="GKwLWXQ0mNxcTZ8bq7SM-32">
          <mxGeometry relative="1" as="geometry">
            <Array as="points">
              <mxPoint x="320" y="990" />
              <mxPoint x="320" y="990" />
            </Array>
          </mxGeometry>
        </mxCell>
        <mxCell id="GKwLWXQ0mNxcTZ8bq7SM-1" value="Contemplado" style="rounded=0;whiteSpace=wrap;html=1;" vertex="1" parent="1">
          <mxGeometry x="259" y="860" width="120" height="60" as="geometry" />
        </mxCell>
        <mxCell id="GKwLWXQ0mNxcTZ8bq7SM-12" style="edgeStyle=orthogonalEdgeStyle;rounded=0;orthogonalLoop=1;jettySize=auto;html=1;entryX=0.5;entryY=0;entryDx=0;entryDy=0;endArrow=none;endFill=0;" edge="1" parent="1" source="GKwLWXQ0mNxcTZ8bq7SM-2" target="GKwLWXQ0mNxcTZ8bq7SM-1">
          <mxGeometry relative="1" as="geometry" />
        </mxCell>
        <mxCell id="GKwLWXQ0mNxcTZ8bq7SM-2" value="Possui" style="rhombus;whiteSpace=wrap;html=1;" vertex="1" parent="1">
          <mxGeometry x="249" y="770" width="140" height="60" as="geometry" />
        </mxCell>
        <mxCell id="GKwLWXQ0mNxcTZ8bq7SM-11" style="edgeStyle=orthogonalEdgeStyle;rounded=0;orthogonalLoop=1;jettySize=auto;html=1;entryX=0.5;entryY=0;entryDx=0;entryDy=0;endArrow=none;endFill=0;" edge="1" parent="1" source="GKwLWXQ0mNxcTZ8bq7SM-3" target="GKwLWXQ0mNxcTZ8bq7SM-2">
          <mxGeometry relative="1" as="geometry" />
        </mxCell>
        <mxCell id="GKwLWXQ0mNxcTZ8bq7SM-14" style="edgeStyle=orthogonalEdgeStyle;rounded=0;orthogonalLoop=1;jettySize=auto;html=1;entryX=0;entryY=0.5;entryDx=0;entryDy=0;endArrow=none;endFill=0;" edge="1" parent="1" source="GKwLWXQ0mNxcTZ8bq7SM-3" target="GKwLWXQ0mNxcTZ8bq7SM-13">
          <mxGeometry relative="1" as="geometry" />
        </mxCell>
        <mxCell id="GKwLWXQ0mNxcTZ8bq7SM-3" value="CestaBasica_Contemplado" style="rounded=0;whiteSpace=wrap;html=1;" vertex="1" parent="1">
          <mxGeometry x="224" y="670" width="190" height="60" as="geometry" />
        </mxCell>
        <mxCell id="GKwLWXQ0mNxcTZ8bq7SM-4" value="CestaBasica" style="rounded=0;whiteSpace=wrap;html=1;" vertex="1" parent="1">
          <mxGeometry x="620" y="670" width="120" height="60" as="geometry" />
        </mxCell>
        <mxCell id="GKwLWXQ0mNxcTZ8bq7SM-5" value="EstadoCivil" style="rounded=0;whiteSpace=wrap;html=1;" vertex="1" parent="1">
          <mxGeometry x="-70" y="860" width="120" height="60" as="geometry" />
        </mxCell>
        <mxCell id="GKwLWXQ0mNxcTZ8bq7SM-6" value="Convenio" style="rounded=0;whiteSpace=wrap;html=1;" vertex="1" parent="1">
          <mxGeometry x="259" y="1160" width="120" height="60" as="geometry" />
        </mxCell>
        <mxCell id="GKwLWXQ0mNxcTZ8bq7SM-7" value="MoraCom" style="rounded=0;whiteSpace=wrap;html=1;" vertex="1" parent="1">
          <mxGeometry x="-70" y="1000" width="120" height="60" as="geometry" />
        </mxCell>
        <mxCell id="GKwLWXQ0mNxcTZ8bq7SM-8" value="Residencia" style="rounded=0;whiteSpace=wrap;html=1;" vertex="1" parent="1">
          <mxGeometry x="620" y="860" width="120" height="60" as="geometry" />
        </mxCell>
        <mxCell id="GKwLWXQ0mNxcTZ8bq7SM-30" style="edgeStyle=orthogonalEdgeStyle;rounded=0;orthogonalLoop=1;jettySize=auto;html=1;endArrow=none;endFill=0;" edge="1" parent="1" source="GKwLWXQ0mNxcTZ8bq7SM-9" target="GKwLWXQ0mNxcTZ8bq7SM-28">
          <mxGeometry relative="1" as="geometry" />
        </mxCell>
        <mxCell id="GKwLWXQ0mNxcTZ8bq7SM-9" value="ComposicaoFamiliar" style="rounded=0;whiteSpace=wrap;html=1;" vertex="1" parent="1">
          <mxGeometry x="620" y="1000" width="120" height="60" as="geometry" />
        </mxCell>
        <mxCell id="GKwLWXQ0mNxcTZ8bq7SM-10" value="Morador" style="rounded=0;whiteSpace=wrap;html=1;" vertex="1" parent="1">
          <mxGeometry x="620" y="1190" width="120" height="60" as="geometry" />
        </mxCell>
        <mxCell id="GKwLWXQ0mNxcTZ8bq7SM-15" style="edgeStyle=orthogonalEdgeStyle;rounded=0;orthogonalLoop=1;jettySize=auto;html=1;entryX=0;entryY=0.5;entryDx=0;entryDy=0;endArrow=none;endFill=0;" edge="1" parent="1" source="GKwLWXQ0mNxcTZ8bq7SM-13" target="GKwLWXQ0mNxcTZ8bq7SM-4">
          <mxGeometry relative="1" as="geometry" />
        </mxCell>
        <mxCell id="GKwLWXQ0mNxcTZ8bq7SM-13" value="Possui" style="rhombus;whiteSpace=wrap;html=1;" vertex="1" parent="1">
          <mxGeometry x="450" y="670" width="140" height="60" as="geometry" />
        </mxCell>
        <mxCell id="GKwLWXQ0mNxcTZ8bq7SM-18" style="edgeStyle=orthogonalEdgeStyle;rounded=0;orthogonalLoop=1;jettySize=auto;html=1;entryX=1;entryY=0.5;entryDx=0;entryDy=0;endArrow=none;endFill=0;" edge="1" parent="1" source="GKwLWXQ0mNxcTZ8bq7SM-16" target="GKwLWXQ0mNxcTZ8bq7SM-5">
          <mxGeometry relative="1" as="geometry" />
        </mxCell>
        <mxCell id="GKwLWXQ0mNxcTZ8bq7SM-16" value="Possui" style="rhombus;whiteSpace=wrap;html=1;" vertex="1" parent="1">
          <mxGeometry x="90" y="860" width="140" height="60" as="geometry" />
        </mxCell>
        <mxCell id="GKwLWXQ0mNxcTZ8bq7SM-21" style="edgeStyle=orthogonalEdgeStyle;rounded=0;orthogonalLoop=1;jettySize=auto;html=1;entryX=0;entryY=0.5;entryDx=0;entryDy=0;endArrow=none;endFill=0;" edge="1" parent="1" source="GKwLWXQ0mNxcTZ8bq7SM-19" target="GKwLWXQ0mNxcTZ8bq7SM-8">
          <mxGeometry relative="1" as="geometry" />
        </mxCell>
        <mxCell id="GKwLWXQ0mNxcTZ8bq7SM-19" value="Possui" style="rhombus;whiteSpace=wrap;html=1;" vertex="1" parent="1">
          <mxGeometry x="430" y="860" width="140" height="60" as="geometry" />
        </mxCell>
        <mxCell id="GKwLWXQ0mNxcTZ8bq7SM-24" style="edgeStyle=orthogonalEdgeStyle;rounded=0;orthogonalLoop=1;jettySize=auto;html=1;entryX=1;entryY=0.5;entryDx=0;entryDy=0;endArrow=none;endFill=0;" edge="1" parent="1" source="GKwLWXQ0mNxcTZ8bq7SM-22" target="GKwLWXQ0mNxcTZ8bq7SM-7">
          <mxGeometry relative="1" as="geometry" />
        </mxCell>
        <mxCell id="GKwLWXQ0mNxcTZ8bq7SM-22" value="Possui" style="rhombus;whiteSpace=wrap;html=1;" vertex="1" parent="1">
          <mxGeometry x="90" y="1000" width="140" height="60" as="geometry" />
        </mxCell>
        <mxCell id="GKwLWXQ0mNxcTZ8bq7SM-27" style="edgeStyle=orthogonalEdgeStyle;rounded=0;orthogonalLoop=1;jettySize=auto;html=1;entryX=0;entryY=0.5;entryDx=0;entryDy=0;endArrow=none;endFill=0;" edge="1" parent="1" source="GKwLWXQ0mNxcTZ8bq7SM-25" target="GKwLWXQ0mNxcTZ8bq7SM-9">
          <mxGeometry relative="1" as="geometry" />
        </mxCell>
        <mxCell id="GKwLWXQ0mNxcTZ8bq7SM-25" value="Possui" style="rhombus;whiteSpace=wrap;html=1;" vertex="1" parent="1">
          <mxGeometry x="430" y="1000" width="140" height="60" as="geometry" />
        </mxCell>
        <mxCell id="GKwLWXQ0mNxcTZ8bq7SM-31" style="edgeStyle=orthogonalEdgeStyle;rounded=0;orthogonalLoop=1;jettySize=auto;html=1;endArrow=none;endFill=0;" edge="1" parent="1" source="GKwLWXQ0mNxcTZ8bq7SM-28" target="GKwLWXQ0mNxcTZ8bq7SM-10">
          <mxGeometry relative="1" as="geometry" />
        </mxCell>
        <mxCell id="GKwLWXQ0mNxcTZ8bq7SM-28" value="Possui" style="rhombus;whiteSpace=wrap;html=1;" vertex="1" parent="1">
          <mxGeometry x="610" y="1100" width="140" height="60" as="geometry" />
        </mxCell>
        <mxCell id="GKwLWXQ0mNxcTZ8bq7SM-34" style="edgeStyle=orthogonalEdgeStyle;rounded=0;orthogonalLoop=1;jettySize=auto;html=1;entryX=0.5;entryY=0;entryDx=0;entryDy=0;endArrow=none;endFill=0;" edge="1" parent="1" source="GKwLWXQ0mNxcTZ8bq7SM-32" target="GKwLWXQ0mNxcTZ8bq7SM-6">
          <mxGeometry relative="1" as="geometry" />
        </mxCell>
        <mxCell id="GKwLWXQ0mNxcTZ8bq7SM-32" value="Possui" style="rhombus;whiteSpace=wrap;html=1;" vertex="1" parent="1">
          <mxGeometry x="250" y="1070" width="140" height="60" as="geometry" />
        </mxCell>
        <mxCell id="GKwLWXQ0mNxcTZ8bq7SM-35" value="1" style="text;html=1;align=center;verticalAlign=middle;whiteSpace=wrap;rounded=0;" vertex="1" parent="1">
          <mxGeometry x="320" y="840" width="20" height="20" as="geometry" />
        </mxCell>
        <mxCell id="GKwLWXQ0mNxcTZ8bq7SM-36" value="N" style="text;html=1;align=center;verticalAlign=middle;whiteSpace=wrap;rounded=0;" vertex="1" parent="1">
          <mxGeometry x="320" y="730" width="20" height="20" as="geometry" />
        </mxCell>
        <mxCell id="GKwLWXQ0mNxcTZ8bq7SM-37" value="1" style="text;html=1;align=center;verticalAlign=middle;whiteSpace=wrap;rounded=0;" vertex="1" parent="1">
          <mxGeometry x="600" y="680" width="20" height="20" as="geometry" />
        </mxCell>
        <mxCell id="GKwLWXQ0mNxcTZ8bq7SM-38" value="N" style="text;html=1;align=center;verticalAlign=middle;whiteSpace=wrap;rounded=0;" vertex="1" parent="1">
          <mxGeometry x="414" y="680" width="20" height="20" as="geometry" />
        </mxCell>
        <mxCell id="GKwLWXQ0mNxcTZ8bq7SM-39" value="N" style="text;html=1;align=center;verticalAlign=middle;whiteSpace=wrap;rounded=0;" vertex="1" parent="1">
          <mxGeometry x="379" y="870" width="20" height="20" as="geometry" />
        </mxCell>
        <mxCell id="GKwLWXQ0mNxcTZ8bq7SM-40" value="1" style="text;html=1;align=center;verticalAlign=middle;whiteSpace=wrap;rounded=0;" vertex="1" parent="1">
          <mxGeometry x="600" y="870" width="20" height="20" as="geometry" />
        </mxCell>
        <mxCell id="GKwLWXQ0mNxcTZ8bq7SM-41" value="N" style="text;html=1;align=center;verticalAlign=middle;whiteSpace=wrap;rounded=0;" vertex="1" parent="1">
          <mxGeometry x="239" y="870" width="20" height="20" as="geometry" />
        </mxCell>
        <mxCell id="GKwLWXQ0mNxcTZ8bq7SM-42" value="1" style="text;html=1;align=center;verticalAlign=middle;whiteSpace=wrap;rounded=0;" vertex="1" parent="1">
          <mxGeometry x="50" y="870" width="20" height="20" as="geometry" />
        </mxCell>
        <mxCell id="GKwLWXQ0mNxcTZ8bq7SM-43" value="1" style="text;html=1;align=center;verticalAlign=middle;whiteSpace=wrap;rounded=0;" vertex="1" parent="1">
          <mxGeometry x="50" y="1010" width="20" height="20" as="geometry" />
        </mxCell>
        <mxCell id="GKwLWXQ0mNxcTZ8bq7SM-44" value="N" style="text;html=1;align=center;verticalAlign=middle;whiteSpace=wrap;rounded=0;" vertex="1" parent="1">
          <mxGeometry x="270" y="920" width="20" height="20" as="geometry" />
        </mxCell>
        <mxCell id="GKwLWXQ0mNxcTZ8bq7SM-45" value="N" style="text;html=1;align=center;verticalAlign=middle;whiteSpace=wrap;rounded=0;" vertex="1" parent="1">
          <mxGeometry x="300" y="920" width="20" height="20" as="geometry" />
        </mxCell>
        <mxCell id="GKwLWXQ0mNxcTZ8bq7SM-46" value="1" style="text;html=1;align=center;verticalAlign=middle;whiteSpace=wrap;rounded=0;" vertex="1" parent="1">
          <mxGeometry x="300" y="1140" width="20" height="20" as="geometry" />
        </mxCell>
        <mxCell id="GKwLWXQ0mNxcTZ8bq7SM-47" value="N" style="text;html=1;align=center;verticalAlign=middle;whiteSpace=wrap;rounded=0;" vertex="1" parent="1">
          <mxGeometry x="600" y="1010" width="20" height="20" as="geometry" />
        </mxCell>
        <mxCell id="GKwLWXQ0mNxcTZ8bq7SM-48" value="1" style="text;html=1;align=center;verticalAlign=middle;whiteSpace=wrap;rounded=0;" vertex="1" parent="1">
          <mxGeometry x="350" y="920" width="20" height="20" as="geometry" />
        </mxCell>
        <mxCell id="GKwLWXQ0mNxcTZ8bq7SM-49" value="1" style="text;html=1;align=center;verticalAlign=middle;whiteSpace=wrap;rounded=0;" vertex="1" parent="1">
          <mxGeometry x="660" y="1169" width="20" height="20" as="geometry" />
        </mxCell>
        <mxCell id="GKwLWXQ0mNxcTZ8bq7SM-50" value="N" style="text;html=1;align=center;verticalAlign=middle;whiteSpace=wrap;rounded=0;" vertex="1" parent="1">
          <mxGeometry x="660" y="1060" width="20" height="20" as="geometry" />
        </mxCell>
      </root>
    </mxGraphModel>
  </diagram>
</mxfile>
